<mxfile host="app.diagrams.net" modified="2021-03-12T07:18:04.842Z" agent="5.0 (Windows)" etag="H8nS4mmbbJkR5z8CTi-L" version="14.4.7" type="github">
  <diagram id="tNfufQ1iNmTB8dBX_Z1D" name="第 1 页">
    <mxGraphModel dx="1422" dy="733" grid="1" gridSize="10" guides="1" tooltips="1" connect="1" arrows="1" fold="1" page="1" pageScale="1" pageWidth="1920" pageHeight="1200" math="0" shadow="0">
      <root>
        <mxCell id="0" />
        <mxCell id="1" parent="0" />
        <mxCell id="rwavJMaWbxxaLGNkcfbu-3" value="" style="edgeStyle=orthogonalEdgeStyle;rounded=0;orthogonalLoop=1;jettySize=auto;html=1;" parent="1" source="rwavJMaWbxxaLGNkcfbu-1" target="rwavJMaWbxxaLGNkcfbu-2" edge="1">
          <mxGeometry relative="1" as="geometry" />
        </mxCell>
        <mxCell id="rwavJMaWbxxaLGNkcfbu-8" style="edgeStyle=orthogonalEdgeStyle;rounded=0;orthogonalLoop=1;jettySize=auto;html=1;entryX=0;entryY=0.5;entryDx=0;entryDy=0;" parent="1" source="rwavJMaWbxxaLGNkcfbu-1" target="rwavJMaWbxxaLGNkcfbu-4" edge="1">
          <mxGeometry relative="1" as="geometry" />
        </mxCell>
        <mxCell id="rwavJMaWbxxaLGNkcfbu-17" value="" style="edgeStyle=orthogonalEdgeStyle;rounded=0;orthogonalLoop=1;jettySize=auto;html=1;" parent="1" source="rwavJMaWbxxaLGNkcfbu-1" target="rwavJMaWbxxaLGNkcfbu-16" edge="1">
          <mxGeometry relative="1" as="geometry" />
        </mxCell>
        <mxCell id="rwavJMaWbxxaLGNkcfbu-1" value="将那些需要套题答案和事件信息两个协助才能确定的属性（最高互助金，互助标准），与传入参数（发病时间，确诊时间...），一同写到UpdateAidInfoReqDto" style="rounded=0;whiteSpace=wrap;html=1;" parent="1" vertex="1">
          <mxGeometry x="280" y="110" width="130" height="120" as="geometry" />
        </mxCell>
        <mxCell id="rwavJMaWbxxaLGNkcfbu-7" value="" style="edgeStyle=orthogonalEdgeStyle;rounded=0;orthogonalLoop=1;jettySize=auto;html=1;entryX=0;entryY=0.5;entryDx=0;entryDy=0;" parent="1" source="rwavJMaWbxxaLGNkcfbu-2" target="rwavJMaWbxxaLGNkcfbu-6" edge="1">
          <mxGeometry relative="1" as="geometry" />
        </mxCell>
        <mxCell id="rwavJMaWbxxaLGNkcfbu-2" value="保存做题，疑点，历史记录" style="whiteSpace=wrap;html=1;rounded=0;" parent="1" vertex="1">
          <mxGeometry x="490" y="190" width="120" height="60" as="geometry" />
        </mxCell>
        <mxCell id="rwavJMaWbxxaLGNkcfbu-9" style="edgeStyle=orthogonalEdgeStyle;rounded=0;orthogonalLoop=1;jettySize=auto;html=1;entryX=0;entryY=0.5;entryDx=0;entryDy=0;" parent="1" source="rwavJMaWbxxaLGNkcfbu-4" target="rwavJMaWbxxaLGNkcfbu-6" edge="1">
          <mxGeometry relative="1" as="geometry" />
        </mxCell>
        <mxCell id="rwavJMaWbxxaLGNkcfbu-4" value="保存case_detail填入的东西" style="whiteSpace=wrap;html=1;rounded=0;" parent="1" vertex="1">
          <mxGeometry x="490" y="80" width="120" height="60" as="geometry" />
        </mxCell>
        <mxCell id="rwavJMaWbxxaLGNkcfbu-6" value="将UpdateAidInfoReqDto保存" style="whiteSpace=wrap;html=1;rounded=0;" parent="1" vertex="1">
          <mxGeometry x="710" y="140" width="120" height="60" as="geometry" />
        </mxCell>
        <mxCell id="rwavJMaWbxxaLGNkcfbu-11" style="edgeStyle=orthogonalEdgeStyle;rounded=0;orthogonalLoop=1;jettySize=auto;html=1;exitX=1;exitY=0.5;exitDx=0;exitDy=0;" parent="1" source="rwavJMaWbxxaLGNkcfbu-13" target="rwavJMaWbxxaLGNkcfbu-1" edge="1">
          <mxGeometry relative="1" as="geometry">
            <mxPoint x="220" y="170" as="sourcePoint" />
          </mxGeometry>
        </mxCell>
        <mxCell id="rwavJMaWbxxaLGNkcfbu-12" value="rule_paper需要修改expire_time，让这个需求上线后，都用2021版套题" style="text;html=1;align=center;verticalAlign=middle;resizable=0;points=[];autosize=1;" parent="1" vertex="1">
          <mxGeometry x="140" y="390" width="400" height="20" as="geometry" />
        </mxCell>
        <mxCell id="rwavJMaWbxxaLGNkcfbu-13" value="点击保存" style="ellipse;whiteSpace=wrap;html=1;aspect=fixed;" parent="1" vertex="1">
          <mxGeometry x="130" y="130" width="80" height="80" as="geometry" />
        </mxCell>
        <mxCell id="rwavJMaWbxxaLGNkcfbu-18" value="" style="edgeStyle=orthogonalEdgeStyle;rounded=0;orthogonalLoop=1;jettySize=auto;html=1;entryX=0;entryY=0.5;entryDx=0;entryDy=0;" parent="1" source="rwavJMaWbxxaLGNkcfbu-16" target="rwavJMaWbxxaLGNkcfbu-19" edge="1">
          <mxGeometry relative="1" as="geometry">
            <mxPoint x="480" y="285" as="targetPoint" />
          </mxGeometry>
        </mxCell>
        <mxCell id="rwavJMaWbxxaLGNkcfbu-16" value="画外音：哪些字段需要两者结合才能确认" style="rounded=0;whiteSpace=wrap;html=1;" parent="1" vertex="1">
          <mxGeometry x="280" y="260" width="130" height="50" as="geometry" />
        </mxCell>
        <mxCell id="rwavJMaWbxxaLGNkcfbu-19" value="最高互助金，抗癌/意外互助标准，倍数，是否设为倍数选项" style="whiteSpace=wrap;html=1;" parent="1" vertex="1">
          <mxGeometry x="490" y="300" width="120" height="60" as="geometry" />
        </mxCell>
        <mxCell id="bs-0sXIdYob6VWZTuJvX-3" style="edgeStyle=orthogonalEdgeStyle;rounded=0;orthogonalLoop=1;jettySize=auto;html=1;" edge="1" parent="1" source="bs-0sXIdYob6VWZTuJvX-1" target="bs-0sXIdYob6VWZTuJvX-2">
          <mxGeometry relative="1" as="geometry" />
        </mxCell>
        <mxCell id="bs-0sXIdYob6VWZTuJvX-1" value="点击保存" style="ellipse;whiteSpace=wrap;html=1;aspect=fixed;" vertex="1" parent="1">
          <mxGeometry x="100" y="530" width="80" height="80" as="geometry" />
        </mxCell>
        <mxCell id="bs-0sXIdYob6VWZTuJvX-5" style="edgeStyle=orthogonalEdgeStyle;rounded=0;orthogonalLoop=1;jettySize=auto;html=1;" edge="1" parent="1" source="bs-0sXIdYob6VWZTuJvX-2" target="bs-0sXIdYob6VWZTuJvX-4">
          <mxGeometry relative="1" as="geometry" />
        </mxCell>
        <mxCell id="bs-0sXIdYob6VWZTuJvX-2" value="保存题库，疑点" style="rounded=0;whiteSpace=wrap;html=1;" vertex="1" parent="1">
          <mxGeometry x="310" y="540" width="120" height="60" as="geometry" />
        </mxCell>
        <mxCell id="bs-0sXIdYob6VWZTuJvX-7" value="" style="edgeStyle=orthogonalEdgeStyle;rounded=0;orthogonalLoop=1;jettySize=auto;html=1;" edge="1" parent="1" source="bs-0sXIdYob6VWZTuJvX-4" target="bs-0sXIdYob6VWZTuJvX-6">
          <mxGeometry relative="1" as="geometry" />
        </mxCell>
        <mxCell id="bs-0sXIdYob6VWZTuJvX-4" value="修改互助标准，最高互助金，拒付原因，mark_status" style="whiteSpace=wrap;html=1;" vertex="1" parent="1">
          <mxGeometry x="500" y="540" width="120" height="60" as="geometry" />
        </mxCell>
        <mxCell id="bs-0sXIdYob6VWZTuJvX-9" value="" style="edgeStyle=orthogonalEdgeStyle;rounded=0;orthogonalLoop=1;jettySize=auto;html=1;" edge="1" parent="1" source="bs-0sXIdYob6VWZTuJvX-6" target="bs-0sXIdYob6VWZTuJvX-8">
          <mxGeometry relative="1" as="geometry" />
        </mxCell>
        <mxCell id="bs-0sXIdYob6VWZTuJvX-6" value="detail_version + 1" style="whiteSpace=wrap;html=1;" vertex="1" parent="1">
          <mxGeometry x="700" y="540" width="120" height="60" as="geometry" />
        </mxCell>
        <mxCell id="bs-0sXIdYob6VWZTuJvX-11" value="" style="edgeStyle=orthogonalEdgeStyle;rounded=0;orthogonalLoop=1;jettySize=auto;html=1;" edge="1" parent="1" source="bs-0sXIdYob6VWZTuJvX-8" target="bs-0sXIdYob6VWZTuJvX-10">
          <mxGeometry relative="1" as="geometry">
            <Array as="points">
              <mxPoint x="960" y="620" />
              <mxPoint x="360" y="620" />
            </Array>
          </mxGeometry>
        </mxCell>
        <mxCell id="bs-0sXIdYob6VWZTuJvX-8" value="修改事件信息" style="whiteSpace=wrap;html=1;" vertex="1" parent="1">
          <mxGeometry x="900" y="540" width="120" height="60" as="geometry" />
        </mxCell>
        <mxCell id="bs-0sXIdYob6VWZTuJvX-13" style="edgeStyle=orthogonalEdgeStyle;rounded=0;orthogonalLoop=1;jettySize=auto;html=1;" edge="1" parent="1" source="bs-0sXIdYob6VWZTuJvX-10" target="bs-0sXIdYob6VWZTuJvX-12">
          <mxGeometry relative="1" as="geometry" />
        </mxCell>
        <mxCell id="bs-0sXIdYob6VWZTuJvX-15" value="" style="edgeStyle=orthogonalEdgeStyle;rounded=0;orthogonalLoop=1;jettySize=auto;html=1;" edge="1" parent="1" source="bs-0sXIdYob6VWZTuJvX-10" target="bs-0sXIdYob6VWZTuJvX-14">
          <mxGeometry relative="1" as="geometry" />
        </mxCell>
        <mxCell id="bs-0sXIdYob6VWZTuJvX-10" value="重新计算最高互助金，修改少儿呼吸道三字段" style="whiteSpace=wrap;html=1;" vertex="1" parent="1">
          <mxGeometry x="300" y="700" width="120" height="60" as="geometry" />
        </mxCell>
        <mxCell id="bs-0sXIdYob6VWZTuJvX-12" value="如果不为通过，还需要把最高互助金，互助标准，倍数，mark_staus置空或0" style="text;html=1;align=center;verticalAlign=middle;resizable=0;points=[];autosize=1;" vertex="1" parent="1">
          <mxGeometry x="150" y="830" width="420" height="20" as="geometry" />
        </mxCell>
        <mxCell id="bs-0sXIdYob6VWZTuJvX-14" value="保存历史处理记录" style="whiteSpace=wrap;html=1;" vertex="1" parent="1">
          <mxGeometry x="500" y="700" width="120" height="60" as="geometry" />
        </mxCell>
      </root>
    </mxGraphModel>
  </diagram>
</mxfile>
